<svg width="30" height="30" viewBox="0 0 30 30" fill="none" xmlns="http://www.w3.org/2000/svg">
<g clip-path="url(#clip0_9324_33001)">
<path d="M15.1829 16.2472C15.537 15.9766 16.036 15.6887 16.6097 15.4278C17.6425 14.9536 18.9091 14.5487 20.035 14.2705C20.5979 14.1314 21.1273 14.0226 21.5723 13.9505C22.015 13.8775 22.382 13.8434 22.5769 13.8445H22.5823L22.9818 13.8542L23.2513 13.5593C24.1899 12.533 25.1068 11.9711 25.777 11.6626C26.1115 11.5083 26.3843 11.4179 26.5651 11.3676C26.656 11.3427 26.7231 11.3275 26.7642 11.3195C26.7837 11.3151 26.7978 11.3129 26.8043 11.3113L28.0504 11.1365L27.4517 10.0258C26.4925 8.24926 24.8655 6.37209 22.6148 4.91768C20.3652 3.4649 17.4823 2.44783 14.0733 2.44889C13.6847 2.44889 13.2874 2.46729 12.8846 2.49436L12.7385 1.55469L11.6537 1.72461L11.801 2.66211C8.25662 3.54008 5.57842 5.34852 3.70125 7.44816C2.71934 8.54533 1.95293 9.72043 1.38023 10.8869C0.808594 12.0534 0.430781 13.2117 0.230508 14.2845L0 15.5252L1.23633 15.3119C1.24066 15.3114 1.39002 15.2887 1.65422 15.2887C2.30918 15.2897 3.65912 15.4229 5.31 16.3663L5.65102 16.5606L6.02238 16.4372C6.15439 16.3934 6.36117 16.3403 6.61453 16.2911C7.37994 16.1406 8.56752 16.0198 9.84059 16.021C11.1256 16.0194 12.5102 16.1444 13.6599 16.448L15.2967 26.9062H2.28205V28.4422H29.9361V26.9062H16.8512L15.1829 16.2472ZM21.6621 6.39324C23.2545 7.41898 24.4952 8.69803 25.3417 9.93699C25.2465 9.97648 25.1469 10.0193 25.0418 10.0675C24.3966 10.3641 23.5999 10.8361 22.7706 11.5706C22.6103 11.3184 22.4252 11.0397 22.2152 10.7392C21.3718 9.53539 20.1431 7.99977 18.6048 6.57728C17.7009 5.74262 16.6898 4.94697 15.5856 4.28275C17.976 4.52521 20.0068 5.32637 21.6621 6.39324ZM5.4334 14.3316C5.42361 14.3684 5.41606 14.4037 5.40738 14.4394C4.12664 13.8359 3.00732 13.6188 2.21168 13.5554C2.39355 12.9449 2.64035 12.3051 2.95647 11.6599C3.7132 10.1178 4.86393 8.54592 6.45855 7.22463C7.46203 6.39324 8.641 5.65918 10.0158 5.08818C9.61852 5.55043 9.24938 6.03271 8.90725 6.52689C7.59844 8.42404 6.68695 10.4847 6.09369 12.1638C5.79609 13.0038 5.57953 13.7481 5.4334 14.3316ZM9.84047 14.2651C8.9192 14.2651 8.04779 14.3214 7.30078 14.4101C7.02152 14.4437 6.75949 14.4816 6.51697 14.5238C6.59496 14.2195 6.69129 13.8699 6.81147 13.4834C7.22719 12.1399 7.90488 10.3678 8.88568 8.63357C9.71279 7.16826 10.7585 5.73605 12.0284 4.59828L13.5981 14.6298C12.3727 14.3636 11.0648 14.2667 9.84047 14.2651ZM14.6828 14.4653L13.0871 4.27191C14.3137 4.74447 15.472 5.44215 16.5254 6.25414C18.2456 7.57812 19.6886 9.19543 20.7236 10.5562C21.1739 11.1489 21.5474 11.6929 21.8332 12.1405C21.8115 12.1432 21.7898 12.1454 21.7671 12.1481C21.2399 12.2147 20.6055 12.3316 19.9127 12.494C18.8745 12.7371 17.7129 13.0802 16.6325 13.5095C16.0923 13.7244 15.5738 13.9609 15.0974 14.2218C14.9545 14.3008 14.8171 14.3825 14.6828 14.4653Z" fill="#DC3545" stroke="#DC3545" stroke-width="0.5"/>
<path d="M23.0198 22.3125H20.125V23.4097H23.0198V22.3125Z" fill="#DC3545"/>
<path d="M30.0041 22.3125H27.1094V23.4097H30.0041V22.3125Z" fill="#DC3545"/>
<path d="M26.4261 18.1289H23.5312V19.2261H26.4261V18.1289Z" fill="#DC3545"/>
<path d="M8.42012 22.3164L8.39844 23.4141L11.2933 23.4715L11.3149 22.3743L8.42012 22.3164Z" fill="#DC3545"/>
<path d="M4.92793 18.0625L4.90625 19.1597L7.79996 19.2171L7.82269 18.1199L4.92793 18.0625Z" fill="#DC3545"/>
</g>
<defs>
<clipPath id="clip0_9324_33001">
<rect width="30" height="30" fill="white"/>
</clipPath>
</defs>
</svg>
