<svg width="30" height="30" viewBox="0 0 30 30" fill="none" xmlns="http://www.w3.org/2000/svg">
<path fill-rule="evenodd" clip-rule="evenodd" d="M11.4124 21.2097C11.4164 22.3137 10.771 23.3113 9.77757 23.7367C8.78417 24.1619 7.63876 23.9311 6.87619 23.1518C6.1136 22.3726 5.88429 21.1987 6.29532 20.1782C6.70636 19.1578 7.67665 18.4922 8.75312 18.4922C9.45712 18.4908 10.1328 18.7764 10.6315 19.2861C11.1302 19.7957 11.4111 20.4876 11.4124 21.2097Z" stroke="#DC3545" stroke-width="2" stroke-linecap="round" stroke-linejoin="round"/>
<path fill-rule="evenodd" clip-rule="evenodd" d="M24.4671 21.2097C24.471 22.3137 23.8256 23.3113 22.8322 23.7367C21.8389 24.1619 20.6934 23.9311 19.9309 23.1518C19.1682 22.3726 18.939 21.1987 19.35 20.1782C19.761 19.1578 20.7312 18.4922 21.8077 18.4922C22.5117 18.4908 23.1875 18.7764 23.6861 19.2861C24.1849 19.7957 24.4658 20.4876 24.4671 21.2097Z" stroke="#DC3545" stroke-width="2" stroke-linecap="round" stroke-linejoin="round"/>
<path d="M3.77938 12.6638C3.60087 13.1498 3.85015 13.6885 4.33617 13.867C4.82219 14.0455 5.3609 13.7963 5.53942 13.3103L3.77938 12.6638ZM5.59418 10.442L4.72175 10.0988C4.71915 10.1055 4.71662 10.1121 4.71417 10.1188L5.59418 10.442ZM12.7617 7.36328C13.2794 7.36328 13.6992 6.94354 13.6992 6.42578C13.6992 5.90802 13.2794 5.48828 12.7617 5.48828V7.36328ZM4.6594 13.9245C5.17717 13.9245 5.5969 13.5048 5.5969 12.987C5.5969 12.4693 5.17717 12.0495 4.6594 12.0495V13.9245ZM3.06405 12.987L3.05693 13.9245H3.06405V12.987ZM1.7344 14.3308L0.7969 14.324V14.3308H1.7344ZM0.7969 16.4258C0.7969 16.9435 1.21663 17.3633 1.7344 17.3633C2.25217 17.3633 2.6719 16.9435 2.6719 16.4258H0.7969ZM4.6594 12.0495C4.14163 12.0495 3.7219 12.4693 3.7219 12.987C3.7219 13.5048 4.14163 13.9245 4.6594 13.9245V12.0495ZM12.7617 13.9245C13.2794 13.9245 13.6992 13.5048 13.6992 12.987C13.6992 12.4693 13.2794 12.0495 12.7617 12.0495V13.9245ZM22.4202 13.3103C22.5987 13.7963 23.1374 14.0455 23.6234 13.867C24.1094 13.6885 24.3587 13.1498 24.1802 12.6638L22.4202 13.3103ZM22.3654 10.442L23.2454 10.1188C23.2429 10.1121 23.2404 10.1055 23.2378 10.0988L22.3654 10.442ZM12.7617 5.48828C12.2439 5.48828 11.8242 5.90802 11.8242 6.42578C11.8242 6.94354 12.2439 7.36328 12.7617 7.36328V5.48828ZM23.3002 13.9245C23.8179 13.9245 24.2377 13.5048 24.2377 12.987C24.2377 12.4693 23.8179 12.0495 23.3002 12.0495V13.9245ZM12.7617 12.0495C12.2439 12.0495 11.8242 12.4693 11.8242 12.987C11.8242 13.5048 12.2439 13.9245 12.7617 13.9245V12.0495ZM23.3002 12.0495C22.7824 12.0495 22.3627 12.4693 22.3627 12.987C22.3627 13.5048 22.7824 13.9245 23.3002 13.9245V12.0495ZM27.2184 12.987V13.9245H27.2247L27.2184 12.987ZM28.5469 14.3308H29.4844V14.324L28.5469 14.3308ZM27.6094 16.4258C27.6094 16.9435 28.0292 17.3633 28.5469 17.3633C29.0647 17.3633 29.4844 16.9435 29.4844 16.4258H27.6094ZM19.1516 22.1458C19.6693 22.1458 20.0891 21.726 20.0891 21.2083C20.0891 20.6905 19.6693 20.2708 19.1516 20.2708V22.1458ZM11.4088 20.2708C10.8911 20.2708 10.4713 20.6905 10.4713 21.2083C10.4713 21.726 10.8911 22.1458 11.4088 22.1458V20.2708ZM24.4702 20.2708C23.9524 20.2708 23.5327 20.6905 23.5327 21.2083C23.5327 21.726 23.9524 22.1458 24.4702 22.1458V20.2708ZM27.2173 21.2083L27.2244 20.2708H27.2173V21.2083ZM28.5469 19.8645L29.4844 19.8713V19.8645H28.5469ZM29.4844 16.4258C29.4844 15.908 29.0647 15.4883 28.5469 15.4883C28.0292 15.4883 27.6094 15.908 27.6094 16.4258H29.4844ZM6.09022 22.1458C6.60798 22.1458 7.02772 21.726 7.02772 21.2083C7.02772 20.6905 6.60798 20.2708 6.09022 20.2708V22.1458ZM3.06405 21.2083V20.2708H3.05693L3.06405 21.2083ZM1.7344 19.8645H0.796875L0.796924 19.8713L1.7344 19.8645ZM2.6719 16.4258C2.6719 15.908 2.25217 15.4883 1.7344 15.4883C1.21663 15.4883 0.7969 15.908 0.7969 16.4258H2.6719ZM13.6992 6.42578C13.6992 5.90802 13.2794 5.48828 12.7617 5.48828C12.2439 5.48828 11.8242 5.90802 11.8242 6.42578H13.6992ZM11.8242 12.987C11.8242 13.5048 12.2439 13.9245 12.7617 13.9245C13.2794 13.9245 13.6992 13.5048 13.6992 12.987H11.8242ZM1.7344 15.4883C1.21663 15.4883 0.7969 15.908 0.7969 16.4258C0.7969 16.9435 1.21663 17.3633 1.7344 17.3633V15.4883ZM4.16337 17.3633C4.68113 17.3633 5.10087 16.9435 5.10087 16.4258C5.10087 15.908 4.68113 15.4883 4.16337 15.4883V17.3633ZM28.5469 17.3633C29.0647 17.3633 29.4844 16.9435 29.4844 16.4258C29.4844 15.908 29.0647 15.4883 28.5469 15.4883V17.3633ZM26.0156 15.4883C25.4978 15.4883 25.0781 15.908 25.0781 16.4258C25.0781 16.9435 25.4978 17.3633 26.0156 17.3633V15.4883ZM5.53942 13.3103L6.47419 10.7653L4.71417 10.1188L3.77938 12.6638L5.53942 13.3103ZM6.4666 10.7852C6.92267 9.62591 7.37978 8.77407 7.95098 8.20968C8.48229 7.68471 9.15789 7.36328 10.1937 7.36328V5.48828C8.68972 5.48828 7.53293 5.98686 6.63313 6.87594C5.7732 7.72562 5.20048 8.88191 4.72175 10.0988L6.4666 10.7852ZM10.1937 7.36328H12.7617V5.48828H10.1937V7.36328ZM4.6594 12.0495H3.06405V13.9245H4.6594V12.0495ZM3.07118 12.0496C2.4647 12.0449 1.88612 12.2879 1.46148 12.717L2.79427 14.0359C2.86835 13.961 2.96328 13.9238 3.05693 13.9245L3.07118 12.0496ZM1.46148 12.717C1.03763 13.1454 0.801206 13.7239 0.7969 14.324L2.67188 14.3375C2.67272 14.2195 2.71939 14.1115 2.79427 14.0359L1.46148 12.717ZM0.7969 14.3308V16.4258H2.6719V14.3308H0.7969ZM4.6594 13.9245H12.7617V12.0495H4.6594V13.9245ZM24.1802 12.6638L23.2454 10.1188L21.4854 10.7653L22.4202 13.3103L24.1802 12.6638ZM23.2378 10.0988C22.7591 8.88191 22.1864 7.72562 21.3264 6.87594C20.4267 5.98686 19.2698 5.48828 17.7658 5.48828V7.36328C18.8017 7.36328 19.4773 7.68471 20.0086 8.20968C20.5798 8.77407 21.0369 9.62591 21.4929 10.7852L23.2378 10.0988ZM17.7658 5.48828H12.7617V7.36328H17.7658V5.48828ZM23.3002 12.0495H12.7617V13.9245H23.3002V12.0495ZM23.3002 13.9245H27.2184V12.0495H23.3002V13.9245ZM27.2247 13.9245C27.4134 13.9233 27.6076 14.0854 27.6094 14.3375L29.4844 14.324C29.4754 13.0818 28.4806 12.0411 27.2122 12.0496L27.2247 13.9245ZM27.6094 14.3308V16.4258H29.4844V14.3308H27.6094ZM19.1516 20.2708H11.4088V22.1458H19.1516V20.2708ZM24.4702 22.1458H27.2173V20.2708H24.4702V22.1458ZM27.2101 22.1458C27.8166 22.1504 28.3952 21.9074 28.8198 21.4783L27.4871 20.1594C27.4129 20.2343 27.3181 20.2715 27.2244 20.2708L27.2101 22.1458ZM28.8198 21.4783C29.2437 21.0499 29.4801 20.4714 29.4844 19.8713L27.6094 19.8578C27.6086 19.9758 27.5619 20.0838 27.4871 20.1594L28.8198 21.4783ZM29.4844 19.8645V16.4258H27.6094V19.8645H29.4844ZM6.09022 20.2708H3.06405V22.1458H6.09022V20.2708ZM3.05693 20.2708C2.96328 20.2715 2.86835 20.2343 2.79427 20.1594L1.46148 21.4783C1.88612 21.9074 2.4647 22.1504 3.07118 22.1458L3.05693 20.2708ZM2.79427 20.1594C2.71939 20.0838 2.67272 19.9758 2.67188 19.8578L0.796924 19.8713C0.80123 20.4714 1.03763 21.0499 1.46148 21.4783L2.79427 20.1594ZM2.6719 19.8645V16.4258H0.7969L0.796875 19.8645H2.6719ZM11.8242 6.42578V12.987H13.6992V6.42578H11.8242ZM1.7344 17.3633H4.16337V15.4883H1.7344V17.3633ZM28.5469 15.4883H26.0156V17.3633H28.5469V15.4883Z" fill="#DC3545"/>
</svg>
