<svg width="30" height="30" viewBox="0 0 30 30" fill="none" xmlns="http://www.w3.org/2000/svg">
<mask id="mask0_9324_33025" style="mask-type:luminance" maskUnits="userSpaceOnUse" x="1" y="0" width="28" height="30">
<path d="M28.2631 0.15625H1.6875V29.8726H28.2631V0.15625Z" fill="white"/>
</mask>
<g mask="url(#mask0_9324_33025)">
<path d="M2.17914 22.8734L2.43006 23.2205C3.25209 24.3576 4.10225 25.5337 4.96995 26.6665C5.60415 27.4941 6.27736 28.281 7.02825 29.1502C7.46409 29.6545 7.76052 29.7246 8.29662 29.45C9.39394 28.9032 10.3947 28.181 11.2596 27.3119C11.5347 27.032 11.5978 26.7348 11.4643 26.3484C11.4295 26.2533 11.3897 26.16 11.3452 26.0692C11.3303 26.0374 11.315 26.0046 11.2994 25.9704C11.441 25.8649 11.5835 25.7621 11.7253 25.6597C12.0706 25.4107 12.4275 25.1532 12.7503 24.8692C13.241 24.4524 13.6912 23.9902 14.0949 23.4887C14.3437 23.1458 14.5641 22.783 14.7537 22.4043C14.824 22.2734 14.8963 22.1385 14.9719 22.0038C15.3761 23.2763 16.19 24.3456 17.5224 25.359C17.7459 25.5289 17.9643 25.7111 18.1747 25.8872C18.2622 25.9597 18.3491 26.0322 18.4357 26.1038C18.4314 26.1263 18.4282 26.1471 18.4253 26.1662C18.4227 26.2008 18.4143 26.2349 18.4003 26.2665C18.1059 26.7524 18.1708 27.1941 18.5967 27.6167C19.4239 28.4348 20.3586 29.1366 21.3751 29.7027C21.5266 29.7924 21.6987 29.8417 21.8746 29.8456C22.0084 29.8411 22.1397 29.8086 22.2598 29.75C22.38 29.6915 22.4866 29.6083 22.5723 29.5056L22.735 29.3322C23.0304 29.0181 23.336 28.693 23.6143 28.3537C25.0658 26.5833 26.3435 25.0093 27.52 23.5421C27.7346 23.2583 27.9186 22.9529 28.0693 22.6308C28.2352 22.2994 28.1614 22.0205 27.8501 21.8021C27.5339 21.5805 27.224 21.3375 26.924 21.1025C26.7906 20.9978 26.6568 20.8932 26.5222 20.7902C26.3836 20.6836 26.2463 20.5761 26.1089 20.4683C25.7956 20.2227 25.4719 19.9688 25.1397 19.737C24.5477 19.3238 24.2901 19.343 23.7613 19.8403C23.687 19.9102 23.6093 19.975 23.5114 20.0576C23.4751 20.0884 23.4354 20.1211 23.393 20.157C23.3717 20.1283 23.3512 20.1007 23.3312 20.0737C23.2682 19.9886 23.2088 19.9078 23.1438 19.834C22.0084 18.5247 21.1397 17.0059 20.587 15.3633C19.4141 11.9889 18.6498 8.48613 18.3105 4.92984C18.1994 3.8806 18.0001 2.84258 17.7147 1.82677C17.6168 1.45604 17.3601 1.0492 16.9519 0.617825C16.5484 0.191648 15.9955 0.176432 15.4724 0.577362C15.4175 0.619398 15.3644 0.663487 15.3124 0.706733L15.2858 0.72872C14.881 0.361251 14.4934 0.197208 14.1324 0.24142C13.7764 0.285029 13.4514 0.530607 13.166 0.971401C12.8613 1.44557 12.6419 1.96947 12.5179 2.51931C12.2861 3.57787 12.0942 4.70878 11.9476 5.88029C11.648 8.27343 11.0054 10.5454 10.3161 12.8555C9.56921 15.3603 8.72963 17.1403 7.59377 18.6268C7.2611 19.0625 6.89838 19.4742 6.50818 19.8591L6.41877 19.7632C6.33988 19.6787 6.27504 19.608 6.20873 19.5394C5.71152 19.0242 5.45516 18.9935 4.83801 19.3737C4.68532 19.4678 4.53793 19.574 4.39539 19.6765L4.37475 19.6912C4.13122 19.8664 3.8882 20.0422 3.64564 20.2185C3.11269 20.6052 2.56148 21.0048 2.01281 21.3878C1.73775 21.5799 1.6551 21.8183 1.7672 22.0965C1.8721 22.3715 2.01047 22.6323 2.17914 22.8734ZM14.6478 11.8342L14.6406 11.8388C14.63 11.8454 14.6125 11.8564 14.6108 11.8577C13.5006 11.7007 12.8006 12.0681 12.3419 13.0482C12.1567 13.4451 12.0174 13.8618 11.9267 14.2903C11.5514 16.0795 11.4462 17.6763 11.605 19.1714L11.609 19.2094C11.6168 19.3886 11.6562 19.5651 11.7256 19.7306C11.7853 19.8281 11.8675 19.9099 11.9652 19.9691C12.0033 19.9967 12.0413 20.0243 12.0754 20.0538L12.1237 20.0956L12.1641 20.0459C12.1991 20.0048 12.2363 19.9656 12.2756 19.9286C12.3778 19.8506 12.4514 19.7411 12.4847 19.6168C12.5184 19.3122 12.5244 19.0008 12.5301 18.6997C12.5333 18.5306 12.5365 18.3605 12.5445 18.1912C12.5945 16.8541 12.7901 15.5263 13.1279 14.2316C13.2365 13.8654 13.4086 13.5213 13.6363 13.2148C13.661 13.1695 13.6955 13.1304 13.7373 13.1004C13.7791 13.0703 13.8272 13.05 13.8779 13.0411C13.978 13.0429 14.0697 13.1498 14.1291 13.2385C14.3848 13.6224 14.6085 14.0126 14.538 14.5635C14.3181 16.2807 14.1576 18.0063 13.9855 19.9231C13.8262 21.6948 13.0245 23.0372 11.5346 24.027C11.2787 24.1969 11.0323 24.3837 10.7715 24.5814C10.6609 24.6653 10.5469 24.7514 10.4277 24.8402L7.18031 20.646C7.33239 20.4769 7.48448 20.3126 7.63524 20.1491C7.99244 19.7619 8.32982 19.396 8.64994 19.0027C10.0812 17.2434 10.8649 15.132 11.4987 13.1125C12.4226 10.1748 13.0962 7.16425 13.5126 4.11301C13.6 3.57047 13.7269 3.03502 13.892 2.51085C13.9274 2.38812 13.9628 2.26564 13.9971 2.14314C14.0473 1.99354 14.1156 1.85061 14.2004 1.71757C14.2245 1.67638 14.2487 1.63422 14.2728 1.59013C14.8866 3.34871 14.7943 9.54145 14.6478 11.8342ZM2.90535 22.0176L5.18582 20.3935L10.1869 26.8029L7.99971 28.4168L2.90535 22.0176ZM15.8476 14.4666L15.8896 13.8212C15.8909 13.7874 15.8947 13.7537 15.9007 13.7205L15.9158 13.6449C15.9578 13.4291 15.9976 13.2254 16.2193 13.1764C16.2457 13.1704 16.2728 13.1673 16.2998 13.1672C16.467 13.1672 16.6018 13.2928 16.702 13.5417C16.8764 13.9556 17.0121 14.3847 17.1074 14.8236C17.3849 16.303 17.5071 17.8073 17.4723 19.3121C17.4723 19.3524 17.4686 19.3936 17.4655 19.435C17.4493 19.5449 17.456 19.6568 17.4849 19.7641C17.5302 19.8931 17.6471 20.1208 17.7989 20.1543C17.9458 20.1868 18.1501 20.0024 18.2237 19.8902C18.3062 19.7367 18.3535 19.5664 18.3625 19.3923C18.5978 17.598 18.5061 15.776 18.0916 14.0144C17.959 13.5107 17.7452 13.0319 17.4587 12.5969C17.1779 12.1584 16.7156 11.9107 16.0064 11.8201V11.6582C16.0064 11.5069 16.0064 11.3593 16.0064 11.2112L15.9988 10.0032C15.9902 8.64958 15.9803 7.29596 15.969 5.94237C15.9649 5.50919 15.9471 5.15355 15.9129 4.82293C15.8181 3.8616 15.8844 2.89117 16.1092 1.95169C16.1267 1.88556 16.1481 1.82053 16.1732 1.75695C16.18 1.73847 16.1872 1.7189 16.1949 1.698C16.2136 1.71987 16.2317 1.74052 16.2491 1.76022C16.3077 1.81553 16.3541 1.88227 16.3857 1.95627C16.422 2.08431 16.4604 2.21225 16.4983 2.34029C16.6456 2.7996 16.7629 3.26795 16.8496 3.74239C16.9527 4.3906 17.038 5.05391 17.1207 5.69523C17.251 6.708 17.3857 7.75507 17.5942 8.77074C18.1508 11.4809 18.7408 14.1221 19.8329 16.638C20.4521 18.1177 21.3565 19.4611 22.4941 20.5918C22.5622 20.6608 22.6268 20.7335 22.6874 20.8091C22.7122 20.8391 22.7382 20.8704 22.766 20.903L19.4069 24.98C17.6785 23.8577 16.0755 22.474 15.9674 20.0096C15.9459 19.5186 15.9017 19.0209 15.8587 18.5398C15.7777 17.6276 15.6941 16.6844 15.762 15.7513C15.7924 15.323 15.8199 14.8943 15.8476 14.4662V14.4666ZM19.6165 26.9488C19.6363 26.9192 19.6559 26.8894 19.6754 26.8595C19.7396 26.7578 19.8095 26.6599 19.8848 26.566C21.2349 24.9511 22.5867 23.3378 23.9603 21.6988L24.7605 20.7438L26.943 22.3973C25.5532 24.1859 24.1277 25.8245 22.6196 27.5584C22.3062 27.9186 21.9922 28.2802 21.6775 28.6437L19.6722 27.0854L19.6412 27.014C19.6329 26.9968 19.6259 26.9794 19.6206 26.9611C19.6178 26.9569 19.617 26.9523 19.616 26.9483L19.6165 26.9488Z" fill="#DC3545" stroke="#DC3545" stroke-width="0.368098"/>
<path d="M8.47907 27.3568C8.57525 27.3561 8.67026 27.3357 8.75823 27.2966C8.84623 27.2578 8.92533 27.2015 8.99063 27.1308C9.05593 27.0601 9.10599 26.9768 9.13785 26.8862C9.16973 26.7955 9.18265 26.699 9.17584 26.6032C9.17028 26.4112 9.0909 26.2288 8.95419 26.0939C8.81746 25.9592 8.63396 25.8822 8.44196 25.8795H8.43364C8.34629 25.8758 8.25911 25.8901 8.17748 25.9214C8.09586 25.9527 8.02152 26.0004 7.959 26.0615C7.89123 26.141 7.8402 26.233 7.80894 26.3326C7.77771 26.4322 7.76693 26.5371 7.77721 26.6409C7.7732 26.7428 7.78978 26.8446 7.82589 26.94C7.86199 27.0355 7.91692 27.1227 7.98743 27.1965C8.11205 27.3071 8.27492 27.3647 8.44137 27.357C8.4537 27.3576 8.46639 27.3572 8.47907 27.3568Z" fill="#DC3545"/>
<path d="M21.2982 27.5943H21.314C21.7248 27.586 21.9699 27.3007 21.9705 26.831C21.9705 26.4024 21.7311 26.1385 21.3289 26.1254C21.2292 26.1221 21.1296 26.1394 21.0368 26.1762C20.9439 26.2132 20.8596 26.2688 20.7893 26.3398C20.7173 26.4118 20.6608 26.4975 20.6233 26.592C20.5855 26.6864 20.5677 26.7876 20.5706 26.8892C20.575 27.0788 20.6536 27.259 20.7898 27.3909C20.926 27.5229 21.1086 27.596 21.2982 27.5943Z" fill="#DC3545"/>
</g>
</svg>
