<svg width="30" height="30" viewBox="0 0 30 30" fill="none" xmlns="http://www.w3.org/2000/svg">
<path fill-rule="evenodd" clip-rule="evenodd" d="M18.6667 14.2319V12.0319C18.6667 11.4247 18.1191 10.6 17.4444 10.6H12.5556C11.8809 10.6 11.3333 11.4247 11.3333 12.0319V18.6319C11.3333 19.2391 11.8809 19.4 12.5556 19.4H22.3333C23.008 19.4 23.5556 19.2391 23.5556 18.6319V7.63193C23.5556 7.02473 23.008 6.2 22.3333 6.2H7.66667C6.992 6.2 6.44444 7.02473 6.44444 7.63193V23.0319C6.44444 23.6391 6.992 23.8 7.66667 23.8H24.7778C25.4524 23.8 26 24.3766 26 24.9838V25.066C26 25.6732 25.4524 26 24.7778 26H6.44444C5.09511 26 4 25.3474 4 24.1319V6.53193C4 5.31643 5.09511 4 6.44444 4H23.5556C24.9061 4 26 5.31643 26 6.53193V19.7319C26 20.9474 24.9061 21.6 23.5556 21.6H11.3333C9.984 21.6 8.88889 20.9474 8.88889 19.7319V10.9319C8.88889 9.71643 9.984 8.4 11.3333 8.4H18.6667C20.0172 8.4 21.1111 9.71643 21.1111 10.9319V15.3319C21.1111 16.5474 20.0172 17.2 18.6667 17.2H16.2222C14.8729 17.2 13.7778 16.5474 13.7778 15.3319V14.2319C13.7778 13.6247 14.3253 13.1319 15 13.1319C15.6747 13.1319 16.2222 13.6247 16.2222 14.2319C16.2222 14.8391 16.7698 15.3319 17.4444 15.3319C18.1191 15.3319 18.6667 14.8391 18.6667 14.2319Z" fill="#DC3545" stroke="white" stroke-width="0.75"/>
</svg>
