<svg width="70" height="64" viewBox="0 0 70 64" fill="none" xmlns="http://www.w3.org/2000/svg">
<path d="M35 0.472656C35.644 0.472656 36.2127 0.791803 36.5059 1.26855L36.5605 1.36621L46.2021 20.1465L46.3145 20.3643L46.5576 20.3984L68.0762 23.4043V23.4053C68.6904 23.4917 69.1829 23.8606 69.4023 24.3438L69.4424 24.4424C69.6221 24.9325 69.5114 25.4784 69.1318 25.8867L69.0527 25.9668L53.418 40.625L53.2305 40.8008L53.2754 41.0537L56.9707 61.7598V61.7607C57.0698 62.3145 56.8182 62.8918 56.2812 63.2363L56.2803 63.2373C55.9858 63.4281 55.6338 63.5273 55.2783 63.5273C54.9873 63.5273 54.6946 63.4593 54.4316 63.3271H54.4307L35.2129 53.6074L34.999 53.5L34.7852 53.6074L15.5664 63.3271C15.3034 63.4593 15.0107 63.5273 14.7197 63.5273C14.3646 63.5273 14.0139 63.4276 13.7178 63.2363H13.7168C13.1798 62.8918 12.9282 62.3144 13.0273 61.7607V61.7598L16.7227 41.0537L16.7676 40.8008L16.5801 40.625L0.945312 25.9668C0.504208 25.5535 0.366077 24.9677 0.557617 24.4443C0.753264 23.9122 1.26901 23.4976 1.92285 23.4062H1.92383L23.4424 20.3984L23.6855 20.3643L23.7979 20.1465L33.4395 1.36523C33.7136 0.834886 34.314 0.472701 35 0.472656Z" fill="#38BC73" stroke="white" stroke-width="0.945946"/>
</svg>
